<mxfile host="app.diagrams.net" agent="Mozilla/5.0 (Macintosh; Intel Mac OS X 10.15; rv:130.0) Gecko/20100101 Firefox/130.0" version="24.7.17">
  <diagram name="Page-1" id="x4Izh6BIh9zt4IwaynIU">
    <mxGraphModel dx="972" dy="649" grid="1" gridSize="10" guides="1" tooltips="1" connect="1" arrows="1" fold="1" page="1" pageScale="1" pageWidth="827" pageHeight="1169" math="0" shadow="0">
      <root>
        <mxCell id="0" />
        <mxCell id="1" parent="0" />
        <mxCell id="O02EDhWyDjyShkTMGK8z-3" value="" style="edgeStyle=orthogonalEdgeStyle;rounded=0;orthogonalLoop=1;jettySize=auto;html=1;" edge="1" parent="1" source="O02EDhWyDjyShkTMGK8z-1" target="O02EDhWyDjyShkTMGK8z-2">
          <mxGeometry relative="1" as="geometry" />
        </mxCell>
        <mxCell id="O02EDhWyDjyShkTMGK8z-1" value="&lt;div&gt;sensor&lt;/div&gt;" style="whiteSpace=wrap;html=1;aspect=fixed;" vertex="1" parent="1">
          <mxGeometry x="310" y="160" width="80" height="80" as="geometry" />
        </mxCell>
        <mxCell id="O02EDhWyDjyShkTMGK8z-2" value="something maybe the fog" style="whiteSpace=wrap;html=1;aspect=fixed;" vertex="1" parent="1">
          <mxGeometry x="470" y="160" width="80" height="80" as="geometry" />
        </mxCell>
      </root>
    </mxGraphModel>
  </diagram>
</mxfile>
